<svg xmlns="http://www.w3.org/2000/svg" viewBox="0 0 80 80" role="img" aria-hidden="true">
  <defs>
    <linearGradient id="rb-card" x1="0%" y1="0%" x2="100%" y2="100%">
      <stop offset="0%" stop-color="#4b78a8"/>
      <stop offset="100%" stop-color="#355c8a"/>
    </linearGradient>
    <linearGradient id="rb-sheet" x1="0%" y1="0%" x2="100%" y2="100%">
      <stop offset="0%" stop-color="#f9fbff"/>
      <stop offset="100%" stop-color="#e3ebf6"/>
    </linearGradient>
    <linearGradient id="rb-gold" x1="0%" y1="0%" x2="100%" y2="100%">
      <stop offset="0%" stop-color="#f4d06f"/>
      <stop offset="100%" stop-color="#d4a437"/>
    </linearGradient>
  </defs>
  <rect x="12" y="12" width="56" height="56" rx="10" fill="url(#rb-card)"/>
  <rect x="22" y="18" width="30" height="44" rx="4" fill="url(#rb-sheet)"/>
  <rect x="22" y="18" width="30" height="4" rx="2" fill="url(#rb-gold)"/>
  <rect x="27" y="27" width="20" height="2.6" rx="1.3" fill="#7a8faa"/>
  <rect x="27" y="33" width="18" height="2.6" rx="1.3" fill="#7a8faa"/>
  <rect x="27" y="39" width="21" height="2.6" rx="1.3" fill="#7a8faa"/>
  <rect x="27" y="45" width="14" height="2.6" rx="1.3" fill="#7a8faa"/>
  <path d="M46 48l12-12c1.3-1.3 3.3-1.3 4.6 0l2.2 2.2c1.3 1.3 1.3 3.3 0 4.6L52.8 54l-6.8 1.8L46 48z" fill="#c7d5e8"/>
  <path d="M57.2 37.8l6 6" stroke="#355c8a" stroke-width="1.8" stroke-linecap="round"/>
  <circle cx="58" cy="21" r="6.5" fill="url(#rb-gold)"/>
  <path d="M58 17.8v6.4M54.8 21h6.4" stroke="#fff7df" stroke-width="1.8" stroke-linecap="round"/>
</svg>
